TITLE ""
FILE "Disc3Track27.mp3" MP3
  TRACK 01 AUDIO
    TITLE "Disc3Track27_01"
    INDEX 01 00:00:00
  TRACK 02 AUDIO
    TITLE "Disc3Track27_02"
    INDEX 01 00:01:04
  TRACK 03 AUDIO
    TITLE "Disc3Track27_03"
    INDEX 01 00:02:07
  TRACK 04 AUDIO
    TITLE "Disc3Track27_04"
    INDEX 01 00:03:22
  TRACK 05 AUDIO
    TITLE "Disc3Track27_05"
    INDEX 01 00:05:17
  TRACK 06 AUDIO
    TITLE "Disc3Track27_06"
    INDEX 01 00:05:51
  TRACK 07 AUDIO
    TITLE "Disc3Track27_07"
    INDEX 01 00:06:66
  TRACK 08 AUDIO
    TITLE "Disc3Track27_08"
    INDEX 01 00:09:27
  TRACK 09 AUDIO
    TITLE "Disc3Track27_09"
    INDEX 01 00:10:42
  TRACK 10 AUDIO
    TITLE "Disc3Track27_10"
    INDEX 01 00:11:00
  TRACK 11 AUDIO
    TITLE "Disc3Track27_11"
    INDEX 01 00:12:15
  TRACK 12 AUDIO
    TITLE "Disc3Track27_12"
    INDEX 01 00:13:25
  TRACK 13 AUDIO
    TITLE "Disc3Track27_13"
    INDEX 01 00:14:38
  TRACK 14 AUDIO
    TITLE "Disc3Track27_14"
    INDEX 01 00:17:71
  TRACK 15 AUDIO
    TITLE "Disc3Track27_15"
    INDEX 01 00:18:28
  TRACK 16 AUDIO
    TITLE "Disc3Track27_16"
    INDEX 01 00:19:53
  TRACK 17 AUDIO
    TITLE "Disc3Track27_17"
    INDEX 01 00:20:70
  TRACK 18 AUDIO
    TITLE "Disc3Track27_18"
    INDEX 01 00:22:20
  TRACK 19 AUDIO
    TITLE "Disc3Track27_19"
    INDEX 01 00:22:61
  TRACK 20 AUDIO
    TITLE "Disc3Track27_20"
    INDEX 01 00:24:15
  TRACK 21 AUDIO
    TITLE "Disc3Track27_21"
    INDEX 01 00:26:51
  TRACK 22 AUDIO
    TITLE "Disc3Track27_22"
    INDEX 01 00:28:05
  TRACK 23 AUDIO
    TITLE "Disc3Track27_23"
    INDEX 01 00:33:25
  TRACK 24 AUDIO
    TITLE "Disc3Track27_24"
    INDEX 01 00:33:57
  TRACK 25 AUDIO
    TITLE "Disc3Track27_25"
    INDEX 01 00:35:03
  TRACK 26 AUDIO
    TITLE "Disc3Track27_26"
    INDEX 01 00:37:00
  TRACK 27 AUDIO
    TITLE "Disc3Track27_27"
    INDEX 01 00:38:21
  TRACK 28 AUDIO
    TITLE "Disc3Track27_28"
    INDEX 01 00:38:64
  TRACK 29 AUDIO
    TITLE "Disc3Track27_29"
    INDEX 01 00:40:16
  TRACK 30 AUDIO
    TITLE "Disc3Track27_30"
    INDEX 01 00:41:50
  TRACK 31 AUDIO
    TITLE "Disc3Track27_31"
    INDEX 01 00:43:04
  TRACK 32 AUDIO
    TITLE "Disc3Track27_32"
    INDEX 01 00:47:71
  TRACK 33 AUDIO
    TITLE "Disc3Track27_33"
    INDEX 01 00:48:27
  TRACK 34 AUDIO
    TITLE "Disc3Track27_34"
    INDEX 01 00:49:42
  TRACK 35 AUDIO
    TITLE "Disc3Track27_35"
    INDEX 01 00:50:43
  TRACK 36 AUDIO
    TITLE "Disc3Track27_36"
    INDEX 01 00:51:57
  TRACK 37 AUDIO
    TITLE "Disc3Track27_37"
    INDEX 01 00:57:20
  TRACK 38 AUDIO
    TITLE "Disc3Track27_38"
    INDEX 01 00:57:51
  TRACK 39 AUDIO
    TITLE "Disc3Track27_39"
    INDEX 01 00:58:61
  TRACK 40 AUDIO
    TITLE "Disc3Track27_40"
    INDEX 01 01:02:19
  TRACK 41 AUDIO
    TITLE "Disc3Track27_41"
    INDEX 01 01:03:25
  TRACK 42 AUDIO
    TITLE "Disc3Track27_42"
    INDEX 01 01:06:35
